<?xml version="1.0" encoding="iso-8859-1"?>
<!-- Uploaded to: SVG Repo, www.svgrepo.com, Generator: SVG Repo Mixer Tools -->
<svg height="800px" width="800px" version="1.1" id="Layer_1" xmlns="http://www.w3.org/2000/svg" xmlns:xlink="http://www.w3.org/1999/xlink" 
	 viewBox="0 0 505 505" xml:space="preserve">
<polygon style="fill:#F0B551;" points="34.582,372.6 254.582,501 254.582,260.6 34.582,132.6 "/>
<polygon style="fill:#EDC654;" points="254.582,501 474.582,372.6 474.582,132.6 254.582,260.6 "/>
<polygon style="fill:#EFDC81;" points="472.982,133 256.182,4.2 34.982,132.6 256.182,260.6 "/>
<path d="M252.582,505c-0.8,0-1.2,0-2-0.4l-220-128.4c-1.2-0.8-2-2-2-3.6v-240c0-1.6,0.8-2.8,2-3.6c1.2-0.8,2.8-0.8,4,0l220,128.4
	c1.2,0.8,2,2,2,3.6v240.4c0,1.6-0.8,2.8-2,3.6C253.782,505,253.382,505,252.582,505z M36.582,370.6l212,123.6V263l-212-123.6V370.6z
	"/>
<path d="M252.582,505c-1.2,0-2.8-0.8-3.6-2c-1.2-2-0.4-4.4,1.6-5.6l218-127.2V139l-212.8,124.8c-2,1.2-4.4,0.4-5.6-1.6
	c-1.2-2-0.4-4.4,1.6-5.6l218.8-128.4c1.2-0.8,2.8-0.8,4,0s2,2,2,3.6v240.8c0,1.6-0.8,2.8-2,3.6l-220,128.4
	C254.182,505,253.382,505,252.582,505z"/>
<path d="M32.582,136.6c-1.2,0-2.8-0.8-3.6-2c-1.2-2-0.4-4.4,1.6-5.6l223.6-128.4c1.2-0.8,2.8-0.8,4,0l216.4,128.4
	c2,1.2,2.4,3.6,1.6,5.6c-1.2,2-3.6,2.4-5.6,1.6L256.182,9l-221.6,127.2C33.782,136.2,33.382,136.6,32.582,136.6z"/>
<path d="M343.782,187.4c-0.8,0-1.2,0-2-0.4l-198-114.8c-2-1.2-2.4-3.6-1.6-5.6c1.2-2,3.6-2.4,5.6-1.6l198,114.8
	c2,1.2,2.4,3.6,1.6,5.6C346.582,186.6,344.982,187.4,343.782,187.4z"/>
</svg>